<svg width="1024" height="1024" viewBox="0 0 1024 1024" fill="none" xmlns="http://www.w3.org/2000/svg">
  <defs>
    <linearGradient id="rail" x1="260" y1="286" x2="764" y2="286" gradientUnits="userSpaceOnUse">
      <stop stop-color="#EF4444" />
      <stop offset="1" stop-color="#F97316" />
    </linearGradient>
    <filter id="calendar-shadow" x="176" y="185" width="672" height="714" filterUnits="userSpaceOnUse" color-interpolation-filters="sRGB">
      <feFlood flood-opacity="0" result="BackgroundImageFix" />
      <feColorMatrix in="SourceAlpha" type="matrix" values="0 0 0 0 0 0 0 0 0 0 0 0 0 0 0 0 0 0 127 0" result="hardAlpha" />
      <feOffset dy="30" />
      <feGaussianBlur stdDeviation="36" />
      <feComposite in2="hardAlpha" operator="out" />
      <feColorMatrix type="matrix" values="0 0 0 0 0.02 0 0 0 0 0.06 0 0 0 0 0.1 0 0 0 0.32 0" />
      <feBlend mode="normal" in2="BackgroundImageFix" result="effect1_dropShadow_1_1" />
      <feBlend mode="normal" in="SourceGraphic" in2="effect1_dropShadow_1_1" result="shape" />
    </filter>
  </defs>

  <rect width="1024" height="1024" fill="#0F766E" />

  <g filter="url(#calendar-shadow)">
    <rect x="232" y="244" width="560" height="586" rx="76" fill="#F8FAFC" />
    <path d="M232 320C232 278.026 266.026 244 308 244H716C757.974 244 792 278.026 792 320V395H232V320Z" fill="url(#rail)" />

    <rect x="344" y="184" width="56" height="148" rx="28" fill="#F8FAFC" />
    <rect x="624" y="184" width="56" height="148" rx="28" fill="#F8FAFC" />
    <rect x="354" y="194" width="36" height="118" rx="18" fill="#1E293B" fill-opacity="0.18" />
    <rect x="634" y="194" width="36" height="118" rx="18" fill="#1E293B" fill-opacity="0.18" />

    <rect x="318" y="464" width="84" height="84" rx="24" fill="#E2E8F0" />
    <rect x="470" y="464" width="84" height="84" rx="24" fill="#E2E8F0" />
    <rect x="622" y="464" width="84" height="84" rx="24" fill="#E2E8F0" />
    <rect x="318" y="604" width="84" height="84" rx="24" fill="#E2E8F0" />
    <rect x="470" y="604" width="84" height="84" rx="24" fill="#10B981" />
    <rect x="622" y="604" width="84" height="84" rx="24" fill="#E2E8F0" />

    <path d="M494 647L517 669L556 621" stroke="#FFFFFF" stroke-width="24" stroke-linecap="round" stroke-linejoin="round" />
    <path d="M330 742H696" stroke="#CBD5E1" stroke-width="28" stroke-linecap="round" />
  </g>
</svg>
